<?xml version="1.0" encoding="UTF-8"?>
<svg width="120px" height="30px" viewBox="0 0 120 30" version="1.1" xmlns="http://www.w3.org/2000/svg" xmlns:xlink="http://www.w3.org/1999/xlink">
    <title>Label_2</title>
    <g id="Page-1" stroke="none" stroke-width="1" fill="none" fill-rule="evenodd">
        <g id="Label_2">
            <g id="Base">
                <g>
                    <path d="M4,0 L60,0 L60,0 L60,30 L4,30 C1.790861,30 2.705415e-16,28.209139 0,26 L0,4 C-2.705415e-16,1.790861 1.790861,4.05812251e-16 4,0 Z" fill="#444444"></path>
                    <g id="Base" transform="translate(60.000000, 0.000000)" fill="#3CB371">
                        <path d="M0,0 L56,0 C58.209139,-4.05812251e-16 60,1.790861 60,4 L60,26 C60,28.209139 58.209139,30 56,30 L0,30 L0,30 L0,0 Z"></path>
                    </g>
                </g>
                <path d="M12.6469727,20 L12.6469727,16.6928711 C12.6469727,16.1385091 12.7167969,15.7280273 12.8564453,15.4614258 C13.1061198,14.9874674 13.5948893,14.7504883 14.3227539,14.7504883 C14.3777669,14.7504883 14.449707,14.7526042 14.5385742,14.7568359 C14.6274414,14.7610677 14.7290039,14.7695312 14.8432617,14.7822266 L14.8432617,14.7822266 L14.8432617,12.9287109 C14.7628581,12.9244792 14.7110189,12.9213053 14.6877441,12.9191895 C14.6644694,12.9170736 14.6359049,12.9160156 14.6020508,12.9160156 C14.0603841,12.9160156 13.6202799,13.0577799 13.2817383,13.3413086 C13.0743815,13.5105794 12.8310547,13.8258464 12.5517578,14.2871094 L12.5517578,14.2871094 L12.5517578,13.0810547 L10.8251953,13.0810547 L10.8251953,20 L12.6469727,20 Z M18.6962891,20.2285156 C19.7626953,20.2285156 20.5921224,19.8920898 21.1845703,19.2192383 C21.5654297,18.7960612 21.7791341,18.3792318 21.8256836,17.96875 L21.8256836,17.96875 L19.9785156,17.96875 C19.8811849,18.171875 19.769043,18.3305664 19.6420898,18.4448242 C19.4093424,18.6564128 19.1067708,18.762207 18.734375,18.762207 C18.383138,18.762207 18.0826823,18.6754557 17.8330078,18.5019531 C17.422526,18.2226562 17.2045898,17.7360026 17.1791992,17.0419922 L17.1791992,17.0419922 L21.9145508,17.0419922 C21.9230143,16.4453125 21.9039714,15.9882812 21.8574219,15.6708984 C21.7770182,15.1292318 21.6013997,14.6531576 21.3305664,14.2426758 C21.0301107,13.777181 20.6492513,13.4365234 20.1879883,13.2207031 C19.7267253,13.0048828 19.2083333,12.8969727 18.6328125,12.8969727 C17.663737,12.8969727 16.8755697,13.2164714 16.2683105,13.8554688 C15.6610514,14.4944661 15.3574219,15.4127604 15.3574219,16.6103516 C15.3574219,17.8883464 15.6938477,18.8108724 16.3666992,19.3779297 C17.0395508,19.944987 17.8160807,20.2285156 18.6962891,20.2285156 Z M20.0356445,15.8486328 L17.2236328,15.8486328 C17.2828776,15.4000651 17.4278158,15.0445964 17.6584473,14.7822266 C17.8890788,14.5198568 18.2138672,14.3886719 18.6328125,14.3886719 C19.0179036,14.3886719 19.3405762,14.5124512 19.6008301,14.7600098 C19.861084,15.0075684 20.0060221,15.3704427 20.0356445,15.8486328 L20.0356445,15.8486328 Z M26.8466797,20 L29.3413086,13.0810547 L27.3989258,13.0810547 L25.9262695,18.1845703 L24.4853516,13.0810547 L22.4541016,13.0810547 L24.9360352,20 L26.8466797,20 Z M32.2231445,12.2558594 L32.2231445,10.5864258 L30.3886719,10.5864258 L30.3886719,12.2558594 L32.2231445,12.2558594 Z M32.2231445,20 L32.2231445,13.0810547 L30.3886719,13.0810547 L30.3886719,20 L32.2231445,20 Z M36.7680664,20.2285156 C37.8344727,20.2285156 38.6638997,19.8920898 39.2563477,19.2192383 C39.637207,18.7960612 39.8509115,18.3792318 39.8974609,17.96875 L39.8974609,17.96875 L38.050293,17.96875 C37.9529622,18.171875 37.8408203,18.3305664 37.7138672,18.4448242 C37.4811198,18.6564128 37.1785482,18.762207 36.8061523,18.762207 C36.4549154,18.762207 36.1544596,18.6754557 35.9047852,18.5019531 C35.4943034,18.2226562 35.2763672,17.7360026 35.2509766,17.0419922 L35.2509766,17.0419922 L39.9863281,17.0419922 C39.9947917,16.4453125 39.9757487,15.9882812 39.9291992,15.6708984 C39.8487956,15.1292318 39.6731771,14.6531576 39.4023438,14.2426758 C39.101888,13.777181 38.7210286,13.4365234 38.2597656,13.2207031 C37.7985026,13.0048828 37.2801107,12.8969727 36.7045898,12.8969727 C35.7355143,12.8969727 34.947347,13.2164714 34.3400879,13.8554688 C33.7328288,14.4944661 33.4291992,15.4127604 33.4291992,16.6103516 C33.4291992,17.8883464 33.765625,18.8108724 34.4384766,19.3779297 C35.1113281,19.944987 35.8878581,20.2285156 36.7680664,20.2285156 Z M38.1074219,15.8486328 L35.2954102,15.8486328 C35.3546549,15.4000651 35.4995931,15.0445964 35.7302246,14.7822266 C35.9608561,14.5198568 36.2856445,14.3886719 36.7045898,14.3886719 C37.089681,14.3886719 37.4123535,14.5124512 37.6726074,14.7600098 C37.9328613,15.0075684 38.0777995,15.3704427 38.1074219,15.8486328 L38.1074219,15.8486328 Z M44.2709961,20 L45.3691406,14.9599609 L46.4545898,20 L48.3144531,20 L50.3203125,13.0810547 L48.4350586,13.0810547 L47.355957,18.0639648 L46.3022461,13.0810547 L44.4677734,13.0810547 L43.4711914,18.0449219 L42.3920898,13.0810547 L40.449707,13.0810547 L42.3920898,20 L44.2709961,20 Z" id="review" fill="#FFFFFF" fill-rule="nonzero"></path>
            </g>
            <path d="M75.2080078,21 L75.2080078,13.331543 L79.6171875,21 L81.8730469,21 L81.8730469,10.2041016 L79.7709961,10.2041016 L79.7709961,17.7407227 L75.4716797,10.2041016 L73.105957,10.2041016 L73.105957,21 L75.2080078,21 Z M87.0405273,21 L87.0405273,10.2041016 L84.7993164,10.2041016 L84.7993164,21 L87.0405273,21 Z M94.7568359,21 L94.7568359,12.1157227 L97.9868164,12.1157227 L97.9868164,10.2041016 L89.2416992,10.2041016 L89.2416992,12.1157227 L92.4863281,12.1157227 L92.4863281,21 L94.7568359,21 Z M103.811523,21.2783203 C105.188477,21.2783203 106.25415,20.9523926 107.008545,20.3005371 C107.762939,19.6486816 108.140137,18.8295898 108.140137,17.8432617 C108.140137,16.8813477 107.817871,16.1464844 107.17334,15.6386719 C106.758301,15.3115234 106.143066,15.050293 105.327637,14.8549805 L105.327637,14.8549805 L103.467285,14.4082031 C102.749512,14.2373047 102.280762,14.0883789 102.061035,13.9614258 C101.719238,13.7709961 101.54834,13.4829102 101.54834,13.097168 C101.54834,12.6772461 101.72168,12.3500977 102.068359,12.1157227 C102.415039,11.8813477 102.878906,11.7641602 103.459961,11.7641602 C103.982422,11.7641602 104.419434,11.8544922 104.770996,12.0351562 C105.29834,12.3085938 105.581543,12.7700195 105.620605,13.4194336 L105.620605,13.4194336 L107.788574,13.4194336 C107.749512,12.2719727 107.328369,11.3967285 106.525146,10.7937012 C105.721924,10.1906738 104.751465,9.88916016 103.61377,9.88916016 C102.251465,9.88916016 101.21875,10.2089844 100.515625,10.8486328 C99.8125,11.4882812 99.4609375,12.2915039 99.4609375,13.2583008 C99.4609375,14.3178711 99.824707,15.0966797 100.552246,15.5947266 C100.981934,15.8925781 101.758301,16.168457 102.881348,16.4223633 L102.881348,16.4223633 L104.023926,16.6787109 C104.692871,16.8251953 105.183594,16.9936523 105.496094,17.184082 C105.808594,17.3793945 105.964844,17.6552734 105.964844,18.0117188 C105.964844,18.6220703 105.649902,19.0395508 105.02002,19.2641602 C104.687988,19.3813477 104.255859,19.4399414 103.723633,19.4399414 C102.834961,19.4399414 102.20752,19.2177734 101.841309,18.7734375 C101.641113,18.5292969 101.506836,18.1606445 101.438477,17.6674805 L101.438477,17.6674805 L99.2851562,17.6674805 C99.2851562,18.7905273 99.6879883,19.6730957 100.493652,20.3151855 C101.299316,20.9572754 102.405273,21.2783203 103.811523,21.2783203 Z" id="NITS" fill="#FFFFFF" fill-rule="nonzero"></path>
        </g>
    </g>
</svg>