<?xml version="1.0" encoding="UTF-8"?>
<svg width="120px" height="30px" viewBox="0 0 120 30" version="1.1" xmlns="http://www.w3.org/2000/svg" xmlns:xlink="http://www.w3.org/1999/xlink">
    <title>Label_1</title>
    <g id="Page-1" stroke="none" stroke-width="1" fill="none" fill-rule="evenodd">
        <g id="Label_1">
            <g id="Base">
                <g>
                    <path d="M4,0 L60,0 L60,0 L60,30 L4,30 C1.790861,30 2.705415e-16,28.209139 0,26 L0,4 C-2.705415e-16,1.790861 1.790861,4.05812251e-16 4,0 Z" fill="#444444"></path>
                    <g id="Base" transform="translate(60.000000, 0.000000)" fill="#0088CC">
                        <path d="M0,0 L56,0 C58.209139,-4.05812251e-16 60,1.790861 60,4 L60,26 C60,28.209139 58.209139,30 56,30 L0,30 L0,30 L0,0 Z"></path>
                    </g>
                </g>
                <path d="M12.6469727,20 L12.6469727,16.6928711 C12.6469727,16.1385091 12.7167969,15.7280273 12.8564453,15.4614258 C13.1061198,14.9874674 13.5948893,14.7504883 14.3227539,14.7504883 C14.3777669,14.7504883 14.449707,14.7526042 14.5385742,14.7568359 C14.6274414,14.7610677 14.7290039,14.7695312 14.8432617,14.7822266 L14.8432617,14.7822266 L14.8432617,12.9287109 C14.7628581,12.9244792 14.7110189,12.9213053 14.6877441,12.9191895 C14.6644694,12.9170736 14.6359049,12.9160156 14.6020508,12.9160156 C14.0603841,12.9160156 13.6202799,13.0577799 13.2817383,13.3413086 C13.0743815,13.5105794 12.8310547,13.8258464 12.5517578,14.2871094 L12.5517578,14.2871094 L12.5517578,13.0810547 L10.8251953,13.0810547 L10.8251953,20 L12.6469727,20 Z M18.6962891,20.2285156 C19.7626953,20.2285156 20.5921224,19.8920898 21.1845703,19.2192383 C21.5654297,18.7960612 21.7791341,18.3792318 21.8256836,17.96875 L21.8256836,17.96875 L19.9785156,17.96875 C19.8811849,18.171875 19.769043,18.3305664 19.6420898,18.4448242 C19.4093424,18.6564128 19.1067708,18.762207 18.734375,18.762207 C18.383138,18.762207 18.0826823,18.6754557 17.8330078,18.5019531 C17.422526,18.2226562 17.2045898,17.7360026 17.1791992,17.0419922 L17.1791992,17.0419922 L21.9145508,17.0419922 C21.9230143,16.4453125 21.9039714,15.9882812 21.8574219,15.6708984 C21.7770182,15.1292318 21.6013997,14.6531576 21.3305664,14.2426758 C21.0301107,13.777181 20.6492513,13.4365234 20.1879883,13.2207031 C19.7267253,13.0048828 19.2083333,12.8969727 18.6328125,12.8969727 C17.663737,12.8969727 16.8755697,13.2164714 16.2683105,13.8554688 C15.6610514,14.4944661 15.3574219,15.4127604 15.3574219,16.6103516 C15.3574219,17.8883464 15.6938477,18.8108724 16.3666992,19.3779297 C17.0395508,19.944987 17.8160807,20.2285156 18.6962891,20.2285156 Z M20.0356445,15.8486328 L17.2236328,15.8486328 C17.2828776,15.4000651 17.4278158,15.0445964 17.6584473,14.7822266 C17.8890788,14.5198568 18.2138672,14.3886719 18.6328125,14.3886719 C19.0179036,14.3886719 19.3405762,14.5124512 19.6008301,14.7600098 C19.861084,15.0075684 20.0060221,15.3704427 20.0356445,15.8486328 L20.0356445,15.8486328 Z M26.8466797,20 L29.3413086,13.0810547 L27.3989258,13.0810547 L25.9262695,18.1845703 L24.4853516,13.0810547 L22.4541016,13.0810547 L24.9360352,20 L26.8466797,20 Z M32.2231445,12.2558594 L32.2231445,10.5864258 L30.3886719,10.5864258 L30.3886719,12.2558594 L32.2231445,12.2558594 Z M32.2231445,20 L32.2231445,13.0810547 L30.3886719,13.0810547 L30.3886719,20 L32.2231445,20 Z M36.7680664,20.2285156 C37.8344727,20.2285156 38.6638997,19.8920898 39.2563477,19.2192383 C39.637207,18.7960612 39.8509115,18.3792318 39.8974609,17.96875 L39.8974609,17.96875 L38.050293,17.96875 C37.9529622,18.171875 37.8408203,18.3305664 37.7138672,18.4448242 C37.4811198,18.6564128 37.1785482,18.762207 36.8061523,18.762207 C36.4549154,18.762207 36.1544596,18.6754557 35.9047852,18.5019531 C35.4943034,18.2226562 35.2763672,17.7360026 35.2509766,17.0419922 L35.2509766,17.0419922 L39.9863281,17.0419922 C39.9947917,16.4453125 39.9757487,15.9882812 39.9291992,15.6708984 C39.8487956,15.1292318 39.6731771,14.6531576 39.4023438,14.2426758 C39.101888,13.777181 38.7210286,13.4365234 38.2597656,13.2207031 C37.7985026,13.0048828 37.2801107,12.8969727 36.7045898,12.8969727 C35.7355143,12.8969727 34.947347,13.2164714 34.3400879,13.8554688 C33.7328288,14.4944661 33.4291992,15.4127604 33.4291992,16.6103516 C33.4291992,17.8883464 33.765625,18.8108724 34.4384766,19.3779297 C35.1113281,19.944987 35.8878581,20.2285156 36.7680664,20.2285156 Z M38.1074219,15.8486328 L35.2954102,15.8486328 C35.3546549,15.4000651 35.4995931,15.0445964 35.7302246,14.7822266 C35.9608561,14.5198568 36.2856445,14.3886719 36.7045898,14.3886719 C37.089681,14.3886719 37.4123535,14.5124512 37.6726074,14.7600098 C37.9328613,15.0075684 38.0777995,15.3704427 38.1074219,15.8486328 L38.1074219,15.8486328 Z M44.2709961,20 L45.3691406,14.9599609 L46.4545898,20 L48.3144531,20 L50.3203125,13.0810547 L48.4350586,13.0810547 L47.355957,18.0639648 L46.3022461,13.0810547 L44.4677734,13.0810547 L43.4711914,18.0449219 L42.3920898,13.0810547 L40.449707,13.0810547 L42.3920898,20 L44.2709961,20 Z" id="review" fill="#FFFFFF" fill-rule="nonzero"></path>
            </g>
            <path d="M76.7392578,20 L77.4863281,17.7807617 L81.4633789,17.7807617 L82.1591797,20 L84.6054688,20 L80.7822266,9.20410156 L78.2333984,9.20410156 L74.3808594,20 L76.7392578,20 Z M80.8334961,15.9204102 L78.0942383,15.9204102 L79.4858398,11.6723633 L80.8334961,15.9204102 Z M90.4814453,20.2783203 C91.8583984,20.2783203 92.9240723,19.9523926 93.6784668,19.3005371 C94.4328613,18.6486816 94.8100586,17.8295898 94.8100586,16.8432617 C94.8100586,15.8813477 94.487793,15.1464844 93.8432617,14.6386719 C93.4282227,14.3115234 92.8129883,14.050293 91.9975586,13.8549805 L91.9975586,13.8549805 L90.137207,13.4082031 C89.4194336,13.2373047 88.9506836,13.0883789 88.730957,12.9614258 C88.3891602,12.7709961 88.2182617,12.4829102 88.2182617,12.097168 C88.2182617,11.6772461 88.3916016,11.3500977 88.7382812,11.1157227 C89.0849609,10.8813477 89.5488281,10.7641602 90.1298828,10.7641602 C90.6523438,10.7641602 91.0893555,10.8544922 91.440918,11.0351562 C91.9682617,11.3085938 92.2514648,11.7700195 92.2905273,12.4194336 L92.2905273,12.4194336 L94.4584961,12.4194336 C94.4194336,11.2719727 93.998291,10.3967285 93.1950684,9.79370117 C92.3918457,9.19067383 91.4213867,8.88916016 90.2836914,8.88916016 C88.9213867,8.88916016 87.8886719,9.20898438 87.1855469,9.84863281 C86.4824219,10.4882812 86.1308594,11.2915039 86.1308594,12.2583008 C86.1308594,13.3178711 86.4946289,14.0966797 87.222168,14.5947266 C87.6518555,14.8925781 88.4282227,15.168457 89.5512695,15.4223633 L89.5512695,15.4223633 L90.6938477,15.6787109 C91.362793,15.8251953 91.8535156,15.9936523 92.1660156,16.184082 C92.4785156,16.3793945 92.6347656,16.6552734 92.6347656,17.0117188 C92.6347656,17.6220703 92.3198242,18.0395508 91.6899414,18.2641602 C91.3579102,18.3813477 90.9257812,18.4399414 90.3935547,18.4399414 C89.5048828,18.4399414 88.8774414,18.2177734 88.5112305,17.7734375 C88.3110352,17.5292969 88.1767578,17.1606445 88.1083984,16.6674805 L88.1083984,16.6674805 L85.9550781,16.6674805 C85.9550781,17.7905273 86.3579102,18.6730957 87.1635742,19.3151855 C87.9692383,19.9572754 89.0751953,20.2783203 90.4814453,20.2783203 Z M98.7358398,20 L98.7358398,16.3891602 L99.8125,15.2832031 L103.14502,20 L106.04541,20 L101.394531,13.6499023 L105.818359,9.20410156 L102.90332,9.20410156 L98.7358398,13.6499023 L98.7358398,9.20410156 L96.5166016,9.20410156 L96.5166016,20 L98.7358398,20 Z" id="ASK" fill="#FFFFFF" fill-rule="nonzero"></path>
        </g>
    </g>
</svg>