<?xml version="1.0" encoding="UTF-8"?>
<svg width="120px" height="30px" viewBox="0 0 120 30" version="1.1" xmlns="http://www.w3.org/2000/svg" xmlns:xlink="http://www.w3.org/1999/xlink">
    <title>Label_5</title>
    <g id="Page-1" stroke="none" stroke-width="1" fill="none" fill-rule="evenodd">
        <g id="Label_5">
            <g id="Base">
                <g>
                    <path d="M4,0 L60,0 L60,0 L60,30 L4,30 C1.790861,30 2.705415e-16,28.209139 0,26 L0,4 C-2.705415e-16,1.790861 1.790861,4.05812251e-16 4,0 Z" fill="#444444"></path>
                    <g id="Base" transform="translate(60.000000, 0.000000)" fill="#DD0000">
                        <path d="M0,0 L56,0 C58.209139,-4.05812251e-16 60,1.790861 60,4 L60,26 C60,28.209139 58.209139,30 56,30 L0,30 L0,30 L0,0 Z"></path>
                    </g>
                </g>
                <path d="M12.6469727,20 L12.6469727,16.6928711 C12.6469727,16.1385091 12.7167969,15.7280273 12.8564453,15.4614258 C13.1061198,14.9874674 13.5948893,14.7504883 14.3227539,14.7504883 C14.3777669,14.7504883 14.449707,14.7526042 14.5385742,14.7568359 C14.6274414,14.7610677 14.7290039,14.7695312 14.8432617,14.7822266 L14.8432617,14.7822266 L14.8432617,12.9287109 C14.7628581,12.9244792 14.7110189,12.9213053 14.6877441,12.9191895 C14.6644694,12.9170736 14.6359049,12.9160156 14.6020508,12.9160156 C14.0603841,12.9160156 13.6202799,13.0577799 13.2817383,13.3413086 C13.0743815,13.5105794 12.8310547,13.8258464 12.5517578,14.2871094 L12.5517578,14.2871094 L12.5517578,13.0810547 L10.8251953,13.0810547 L10.8251953,20 L12.6469727,20 Z M18.6962891,20.2285156 C19.7626953,20.2285156 20.5921224,19.8920898 21.1845703,19.2192383 C21.5654297,18.7960612 21.7791341,18.3792318 21.8256836,17.96875 L21.8256836,17.96875 L19.9785156,17.96875 C19.8811849,18.171875 19.769043,18.3305664 19.6420898,18.4448242 C19.4093424,18.6564128 19.1067708,18.762207 18.734375,18.762207 C18.383138,18.762207 18.0826823,18.6754557 17.8330078,18.5019531 C17.422526,18.2226562 17.2045898,17.7360026 17.1791992,17.0419922 L17.1791992,17.0419922 L21.9145508,17.0419922 C21.9230143,16.4453125 21.9039714,15.9882812 21.8574219,15.6708984 C21.7770182,15.1292318 21.6013997,14.6531576 21.3305664,14.2426758 C21.0301107,13.777181 20.6492513,13.4365234 20.1879883,13.2207031 C19.7267253,13.0048828 19.2083333,12.8969727 18.6328125,12.8969727 C17.663737,12.8969727 16.8755697,13.2164714 16.2683105,13.8554688 C15.6610514,14.4944661 15.3574219,15.4127604 15.3574219,16.6103516 C15.3574219,17.8883464 15.6938477,18.8108724 16.3666992,19.3779297 C17.0395508,19.944987 17.8160807,20.2285156 18.6962891,20.2285156 Z M20.0356445,15.8486328 L17.2236328,15.8486328 C17.2828776,15.4000651 17.4278158,15.0445964 17.6584473,14.7822266 C17.8890788,14.5198568 18.2138672,14.3886719 18.6328125,14.3886719 C19.0179036,14.3886719 19.3405762,14.5124512 19.6008301,14.7600098 C19.861084,15.0075684 20.0060221,15.3704427 20.0356445,15.8486328 L20.0356445,15.8486328 Z M26.8466797,20 L29.3413086,13.0810547 L27.3989258,13.0810547 L25.9262695,18.1845703 L24.4853516,13.0810547 L22.4541016,13.0810547 L24.9360352,20 L26.8466797,20 Z M32.2231445,12.2558594 L32.2231445,10.5864258 L30.3886719,10.5864258 L30.3886719,12.2558594 L32.2231445,12.2558594 Z M32.2231445,20 L32.2231445,13.0810547 L30.3886719,13.0810547 L30.3886719,20 L32.2231445,20 Z M36.7680664,20.2285156 C37.8344727,20.2285156 38.6638997,19.8920898 39.2563477,19.2192383 C39.637207,18.7960612 39.8509115,18.3792318 39.8974609,17.96875 L39.8974609,17.96875 L38.050293,17.96875 C37.9529622,18.171875 37.8408203,18.3305664 37.7138672,18.4448242 C37.4811198,18.6564128 37.1785482,18.762207 36.8061523,18.762207 C36.4549154,18.762207 36.1544596,18.6754557 35.9047852,18.5019531 C35.4943034,18.2226562 35.2763672,17.7360026 35.2509766,17.0419922 L35.2509766,17.0419922 L39.9863281,17.0419922 C39.9947917,16.4453125 39.9757487,15.9882812 39.9291992,15.6708984 C39.8487956,15.1292318 39.6731771,14.6531576 39.4023438,14.2426758 C39.101888,13.777181 38.7210286,13.4365234 38.2597656,13.2207031 C37.7985026,13.0048828 37.2801107,12.8969727 36.7045898,12.8969727 C35.7355143,12.8969727 34.947347,13.2164714 34.3400879,13.8554688 C33.7328288,14.4944661 33.4291992,15.4127604 33.4291992,16.6103516 C33.4291992,17.8883464 33.765625,18.8108724 34.4384766,19.3779297 C35.1113281,19.944987 35.8878581,20.2285156 36.7680664,20.2285156 Z M38.1074219,15.8486328 L35.2954102,15.8486328 C35.3546549,15.4000651 35.4995931,15.0445964 35.7302246,14.7822266 C35.9608561,14.5198568 36.2856445,14.3886719 36.7045898,14.3886719 C37.089681,14.3886719 37.4123535,14.5124512 37.6726074,14.7600098 C37.9328613,15.0075684 38.0777995,15.3704427 38.1074219,15.8486328 L38.1074219,15.8486328 Z M44.2709961,20 L45.3691406,14.9599609 L46.4545898,20 L48.3144531,20 L50.3203125,13.0810547 L48.4350586,13.0810547 L47.355957,18.0639648 L46.3022461,13.0810547 L44.4677734,13.0810547 L43.4711914,18.0449219 L42.3920898,13.0810547 L40.449707,13.0810547 L42.3920898,20 L44.2709961,20 Z" id="review" fill="#FFFFFF" fill-rule="nonzero"></path>
            </g>
            <path d="M71.2080078,21 L71.2080078,13.6977539 C71.2080078,13.487793 71.2055664,13.1936035 71.2006836,12.8151855 C71.1958008,12.4367676 71.1933594,12.1450195 71.1933594,11.9399414 L71.1933594,11.9399414 L73.222168,21 L75.4121094,21 L77.4555664,11.9399414 C77.4555664,12.1450195 77.453125,12.4367676 77.4482422,12.8151855 C77.4433594,13.1936035 77.440918,13.487793 77.440918,13.6977539 L77.440918,13.6977539 L77.440918,21 L79.5429688,21 L79.5429688,10.2041016 L76.2983398,10.2041016 L74.3500977,18.6928711 L72.387207,10.2041016 L69.105957,10.2041016 L69.105957,21 L71.2080078,21 Z M86.480957,21.2783203 C88.3510742,21.2783203 89.6181641,20.6923828 90.2822266,19.5205078 C90.6386719,18.8808594 90.8168945,17.9873047 90.8168945,16.8398438 L90.8168945,16.8398438 L90.8168945,10.2041016 L88.5244141,10.2041016 L88.5244141,16.8398438 C88.5244141,17.5820312 88.4365234,18.1240234 88.2607422,18.4658203 C87.9873047,19.0712891 87.394043,19.3740234 86.480957,19.3740234 C85.5629883,19.3740234 84.9672852,19.0712891 84.6938477,18.4658203 C84.5180664,18.1240234 84.4301758,17.5820312 84.4301758,16.8398438 L84.4301758,16.8398438 L84.4301758,10.2041016 L82.1376953,10.2041016 L82.1376953,16.8398438 C82.1376953,17.9873047 82.315918,18.8808594 82.6723633,19.5205078 C83.3413086,20.6923828 84.6108398,21.2783203 86.480957,21.2783203 Z M96.9765625,21.2783203 C98.3535156,21.2783203 99.4191895,20.9523926 100.173584,20.3005371 C100.927979,19.6486816 101.305176,18.8295898 101.305176,17.8432617 C101.305176,16.8813477 100.98291,16.1464844 100.338379,15.6386719 C99.9233398,15.3115234 99.3081055,15.050293 98.4926758,14.8549805 L98.4926758,14.8549805 L96.6323242,14.4082031 C95.9145508,14.2373047 95.4458008,14.0883789 95.2260742,13.9614258 C94.8842773,13.7709961 94.7133789,13.4829102 94.7133789,13.097168 C94.7133789,12.6772461 94.8867188,12.3500977 95.2333984,12.1157227 C95.5800781,11.8813477 96.0439453,11.7641602 96.625,11.7641602 C97.1474609,11.7641602 97.5844727,11.8544922 97.9360352,12.0351562 C98.4633789,12.3085938 98.746582,12.7700195 98.7856445,13.4194336 L98.7856445,13.4194336 L100.953613,13.4194336 C100.914551,12.2719727 100.493408,11.3967285 99.6901855,10.7937012 C98.8869629,10.1906738 97.9165039,9.88916016 96.7788086,9.88916016 C95.4165039,9.88916016 94.3837891,10.2089844 93.6806641,10.8486328 C92.9775391,11.4882812 92.6259766,12.2915039 92.6259766,13.2583008 C92.6259766,14.3178711 92.9897461,15.0966797 93.7172852,15.5947266 C94.1469727,15.8925781 94.9233398,16.168457 96.0463867,16.4223633 L96.0463867,16.4223633 L97.1889648,16.6787109 C97.8579102,16.8251953 98.3486328,16.9936523 98.6611328,17.184082 C98.9736328,17.3793945 99.1298828,17.6552734 99.1298828,18.0117188 C99.1298828,18.6220703 98.8149414,19.0395508 98.1850586,19.2641602 C97.8530273,19.3813477 97.4208984,19.4399414 96.8886719,19.4399414 C96,19.4399414 95.3725586,19.2177734 95.0063477,18.7734375 C94.8061523,18.5292969 94.671875,18.1606445 94.6035156,17.6674805 L94.6035156,17.6674805 L92.4501953,17.6674805 C92.4501953,18.7905273 92.8530273,19.6730957 93.6586914,20.3151855 C94.4643555,20.9572754 95.5703125,21.2783203 96.9765625,21.2783203 Z M107.589355,21 L107.589355,12.1157227 L110.819336,12.1157227 L110.819336,10.2041016 L102.074219,10.2041016 L102.074219,12.1157227 L105.318848,12.1157227 L105.318848,21 L107.589355,21 Z" id="MUST" fill="#FFFFFF" fill-rule="nonzero"></path>
        </g>
    </g>
</svg>